<svg xmlns="http://www.w3.org/2000/svg" xmlns:xlink="http://www.w3.org/1999/xlink" contentStyleType="text/css" data-diagram-type="SEQUENCE" height="1198px" preserveAspectRatio="none" style="width:2189px;height:1198px;background:#FFFFFF;" version="1.1" viewBox="0 0 2189 1198" width="2189px" zoomAndPan="magnify"><defs/><g><g><title>Flat-config parser</title><rect fill="transparent" height="1127.0469" width="8" x="69.6191" y="36.2969"/><line style="stroke:#181818;stroke-width:0.5;stroke-dasharray:5.0,5.0;" x1="73" x2="73" y1="36.2969" y2="1163.3438"/></g><g><title>ConfigDrivenSlotCatalog</title><rect fill="transparent" height="1127.0469" width="8" x="241.0942" y="36.2969"/><line style="stroke:#181818;stroke-width:0.5;stroke-dasharray:5.0,5.0;" x1="244.2383" x2="244.2383" y1="36.2969" y2="1163.3438"/></g><g><title>CertSlotRegistry</title><rect fill="transparent" height="1127.0469" width="8" x="408.1533" y="36.2969"/><line style="stroke:#181818;stroke-width:0.5;stroke-dasharray:5.0,5.0;" x1="411.9502" x2="411.9502" y1="36.2969" y2="1163.3438"/></g><g><title>ConfigDrivenTrustStoreCatalog</title><rect fill="transparent" height="1127.0469" width="8" x="598.4341" y="36.2969"/><line style="stroke:#181818;stroke-width:0.5;stroke-dasharray:5.0,5.0;" x1="602.3564" x2="602.3564" y1="36.2969" y2="1163.3438"/></g><g><title>TrustStoreManager</title><rect fill="transparent" height="1127.0469" width="8" x="860.2681" y="36.2969"/><line style="stroke:#181818;stroke-width:0.5;stroke-dasharray:5.0,5.0;" x1="863.9478" x2="863.9478" y1="36.2969" y2="1163.3438"/></g><g><title>CertManagementService</title><rect fill="transparent" height="1127.0469" width="8" x="1166.8086" y="36.2969"/><line style="stroke:#181818;stroke-width:0.5;stroke-dasharray:5.0,5.0;" x1="1170.0093" x2="1170.0093" y1="36.2969" y2="1163.3438"/></g><g><title>FileBackedSlotHandler</title><rect fill="transparent" height="1127.0469" width="8" x="1386.9004" y="36.2969"/><line style="stroke:#181818;stroke-width:0.5;stroke-dasharray:5.0,5.0;" x1="1389.9556" x2="1389.9556" y1="36.2969" y2="1163.3438"/></g><g><title>OpenSslCertParser</title><rect fill="transparent" height="1127.0469" width="8" x="1612.1719" y="36.2969"/><line style="stroke:#181818;stroke-width:0.5;stroke-dasharray:5.0,5.0;" x1="1615.4033" x2="1615.4033" y1="36.2969" y2="1163.3438"/></g><g><title>TrustStoreHandler</title><rect fill="transparent" height="1127.0469" width="8" x="1766.1401" y="36.2969"/><line style="stroke:#181818;stroke-width:0.5;stroke-dasharray:5.0,5.0;" x1="1769.9404" x2="1769.9404" y1="36.2969" y2="1163.3438"/></g><g><title>DataManager</title><rect fill="transparent" height="1127.0469" width="8" x="1901.7368" y="36.2969"/><line style="stroke:#181818;stroke-width:0.5;stroke-dasharray:5.0,5.0;" x1="1905.3398" x2="1905.3398" y1="36.2969" y2="1163.3438"/></g><g><title>Shared Deployment Storage</title><rect fill="transparent" height="1127.0469" width="8" x="2072.5864" y="36.2969"/><line style="stroke:#181818;stroke-width:0.5;stroke-dasharray:5.0,5.0;" x1="2076.1338" x2="2076.1338" y1="36.2969" y2="1163.3438"/></g><rect fill="#E2E2F0" height="30.2969" rx="2.5" ry="2.5" style="stroke:#181818;stroke-width:0.5;" width="137.2383" x="5" y="5"/><text fill="#000000" font-family="sans-serif" font-size="14" lengthAdjust="spacing" textLength="123.2383" x="12" y="24.9951">Flat-config parser</text><rect fill="#E2E2F0" height="30.2969" rx="2.5" ry="2.5" style="stroke:#181818;stroke-width:0.5;" width="137.2383" x="5" y="1162.3438"/><text fill="#000000" font-family="sans-serif" font-size="14" lengthAdjust="spacing" textLength="123.2383" x="12" y="1182.3389">Flat-config parser</text><rect fill="#E2E2F0" height="30.2969" rx="2.5" ry="2.5" style="stroke:#181818;stroke-width:0.5;" width="185.7119" x="152.2383" y="5"/><text fill="#000000" font-family="sans-serif" font-size="14" lengthAdjust="spacing" textLength="171.7119" x="159.2383" y="24.9951">ConfigDrivenSlotCatalog</text><rect fill="#E2E2F0" height="30.2969" rx="2.5" ry="2.5" style="stroke:#181818;stroke-width:0.5;" width="185.7119" x="152.2383" y="1162.3438"/><text fill="#000000" font-family="sans-serif" font-size="14" lengthAdjust="spacing" textLength="171.7119" x="159.2383" y="1182.3389">ConfigDrivenSlotCatalog</text><rect fill="#E2E2F0" height="30.2969" rx="2.5" ry="2.5" style="stroke:#181818;stroke-width:0.5;" width="128.4063" x="347.9502" y="5"/><text fill="#000000" font-family="sans-serif" font-size="14" lengthAdjust="spacing" textLength="114.4063" x="354.9502" y="24.9951">CertSlotRegistry</text><rect fill="#E2E2F0" height="30.2969" rx="2.5" ry="2.5" style="stroke:#181818;stroke-width:0.5;" width="128.4063" x="347.9502" y="1162.3438"/><text fill="#000000" font-family="sans-serif" font-size="14" lengthAdjust="spacing" textLength="114.4063" x="354.9502" y="1182.3389">CertSlotRegistry</text><rect fill="#E2E2F0" height="30.2969" rx="2.5" ry="2.5" style="stroke:#181818;stroke-width:0.5;" width="232.1553" x="486.3564" y="5"/><text fill="#000000" font-family="sans-serif" font-size="14" lengthAdjust="spacing" textLength="218.1553" x="493.3564" y="24.9951">ConfigDrivenTrustStoreCatalog</text><rect fill="#E2E2F0" height="30.2969" rx="2.5" ry="2.5" style="stroke:#181818;stroke-width:0.5;" width="232.1553" x="486.3564" y="1162.3438"/><text fill="#000000" font-family="sans-serif" font-size="14" lengthAdjust="spacing" textLength="218.1553" x="493.3564" y="1182.3389">ConfigDrivenTrustStoreCatalog</text><rect fill="#E2E2F0" height="30.2969" rx="2.5" ry="2.5" style="stroke:#181818;stroke-width:0.5;" width="148.6406" x="789.9478" y="5"/><text fill="#000000" font-family="sans-serif" font-size="14" lengthAdjust="spacing" textLength="134.6406" x="796.9478" y="24.9951">TrustStoreManager</text><rect fill="#E2E2F0" height="30.2969" rx="2.5" ry="2.5" style="stroke:#181818;stroke-width:0.5;" width="148.6406" x="789.9478" y="1162.3438"/><text fill="#000000" font-family="sans-serif" font-size="14" lengthAdjust="spacing" textLength="134.6406" x="796.9478" y="1182.3389">TrustStoreManager</text><rect fill="#E2E2F0" height="30.2969" rx="2.5" ry="2.5" style="stroke:#181818;stroke-width:0.5;" width="187.5986" x="1077.0093" y="5"/><text fill="#000000" font-family="sans-serif" font-size="14" lengthAdjust="spacing" textLength="173.5986" x="1084.0093" y="24.9951">CertManagementService</text><rect fill="#E2E2F0" height="30.2969" rx="2.5" ry="2.5" style="stroke:#181818;stroke-width:0.5;" width="187.5986" x="1077.0093" y="1162.3438"/><text fill="#000000" font-family="sans-serif" font-size="14" lengthAdjust="spacing" textLength="173.5986" x="1084.0093" y="1182.3389">CertManagementService</text><rect fill="#E2E2F0" height="30.2969" rx="2.5" ry="2.5" style="stroke:#181818;stroke-width:0.5;" width="171.8896" x="1304.9556" y="5"/><text fill="#000000" font-family="sans-serif" font-size="14" lengthAdjust="spacing" textLength="157.8896" x="1311.9556" y="24.9951">FileBackedSlotHandler</text><rect fill="#E2E2F0" height="30.2969" rx="2.5" ry="2.5" style="stroke:#181818;stroke-width:0.5;" width="171.8896" x="1304.9556" y="1162.3438"/><text fill="#000000" font-family="sans-serif" font-size="14" lengthAdjust="spacing" textLength="157.8896" x="1311.9556" y="1182.3389">FileBackedSlotHandler</text><rect fill="#E2E2F0" height="30.2969" rx="2.5" ry="2.5" style="stroke:#181818;stroke-width:0.5;" width="145.5371" x="1543.4033" y="5"/><text fill="#000000" font-family="sans-serif" font-size="14" lengthAdjust="spacing" textLength="131.5371" x="1550.4033" y="24.9951">OpenSslCertParser</text><rect fill="#E2E2F0" height="30.2969" rx="2.5" ry="2.5" style="stroke:#181818;stroke-width:0.5;" width="145.5371" x="1543.4033" y="1162.3438"/><text fill="#000000" font-family="sans-serif" font-size="14" lengthAdjust="spacing" textLength="131.5371" x="1550.4033" y="1182.3389">OpenSslCertParser</text><rect fill="#E2E2F0" height="30.2969" rx="2.5" ry="2.5" style="stroke:#181818;stroke-width:0.5;" width="142.3994" x="1698.9404" y="5"/><text fill="#000000" font-family="sans-serif" font-size="14" lengthAdjust="spacing" textLength="128.3994" x="1705.9404" y="24.9951">TrustStoreHandler</text><rect fill="#E2E2F0" height="30.2969" rx="2.5" ry="2.5" style="stroke:#181818;stroke-width:0.5;" width="142.3994" x="1698.9404" y="1162.3438"/><text fill="#000000" font-family="sans-serif" font-size="14" lengthAdjust="spacing" textLength="128.3994" x="1705.9404" y="1182.3389">TrustStoreHandler</text><rect fill="#E2E2F0" height="30.2969" rx="2.5" ry="2.5" style="stroke:#181818;stroke-width:0.5;" width="108.7939" x="1851.3398" y="5"/><text fill="#000000" font-family="sans-serif" font-size="14" lengthAdjust="spacing" textLength="94.7939" x="1858.3398" y="24.9951">DataManager</text><rect fill="#E2E2F0" height="30.2969" rx="2.5" ry="2.5" style="stroke:#181818;stroke-width:0.5;" width="108.7939" x="1851.3398" y="1162.3438"/><text fill="#000000" font-family="sans-serif" font-size="14" lengthAdjust="spacing" textLength="94.7939" x="1858.3398" y="1182.3389">DataManager</text><rect fill="#E2E2F0" height="30.2969" rx="2.5" ry="2.5" style="stroke:#181818;stroke-width:0.5;" width="212.9053" x="1970.1338" y="5"/><text fill="#000000" font-family="sans-serif" font-size="14" lengthAdjust="spacing" textLength="198.9053" x="1977.1338" y="24.9951">Shared Deployment Storage</text><rect fill="#E2E2F0" height="30.2969" rx="2.5" ry="2.5" style="stroke:#181818;stroke-width:0.5;" width="212.9053" x="1970.1338" y="1162.3438"/><text fill="#000000" font-family="sans-serif" font-size="14" lengthAdjust="spacing" textLength="198.9053" x="1977.1338" y="1182.3389">Shared Deployment Storage</text><polygon fill="#181818" points="233.0942,63.4297,243.0942,67.4297,233.0942,71.4297,237.0942,67.4297" style="stroke:#181818;stroke-width:1;"/><line style="stroke:#181818;stroke-width:1;" x1="73.6191" x2="239.0942" y1="67.4297" y2="67.4297"/><text fill="#000000" font-family="sans-serif" font-size="13" lengthAdjust="spacing" textLength="109.2368" x="80.6191" y="62.3638">CertificateConfig</text><polygon fill="#181818" points="400.1533,92.5625,410.1533,96.5625,400.1533,100.5625,404.1533,96.5625" style="stroke:#181818;stroke-width:1;"/><line style="stroke:#181818;stroke-width:1;" x1="245.0942" x2="406.1533" y1="96.5625" y2="96.5625"/><text fill="#000000" font-family="sans-serif" font-size="13" lengthAdjust="spacing" textLength="128.9463" x="252.0942" y="91.4966">RegisterSlot(config)</text><polygon fill="#181818" points="590.4341,121.6953,600.4341,125.6953,590.4341,129.6953,594.4341,125.6953" style="stroke:#181818;stroke-width:1;"/><line style="stroke:#181818;stroke-width:1;" x1="73.6191" x2="596.4341" y1="125.6953" y2="125.6953"/><text fill="#000000" font-family="sans-serif" font-size="13" lengthAdjust="spacing" textLength="109.2368" x="80.6191" y="120.6294">CertificateConfig</text><polygon fill="#181818" points="852.2681,150.8281,862.2681,154.8281,852.2681,158.8281,856.2681,154.8281" style="stroke:#181818;stroke-width:1;"/><line style="stroke:#181818;stroke-width:1;" x1="602.4341" x2="858.2681" y1="154.8281" y2="154.8281"/><text fill="#000000" font-family="sans-serif" font-size="13" lengthAdjust="spacing" textLength="237.834" x="609.4341" y="149.7622">Load(store configs, registry, factory)</text><polygon fill="#181818" points="852.2681,179.9609,862.2681,183.9609,852.2681,187.9609,856.2681,183.9609" style="stroke:#181818;stroke-width:1;"/><line style="stroke:#181818;stroke-width:1;" x1="602.4341" x2="858.2681" y1="183.9609" y2="183.9609"/><text fill="#000000" font-family="sans-serif" font-size="13" lengthAdjust="spacing" textLength="150.1348" x="609.4341" y="178.895">RegisterAppResource()</text><polygon fill="#181818" points="423.1533,209.0938,413.1533,213.0938,423.1533,217.0938,419.1533,213.0938" style="stroke:#181818;stroke-width:1;"/><line style="stroke:#181818;stroke-width:1;" x1="417.1533" x2="1169.8086" y1="213.0938" y2="213.0938"/><text fill="#000000" font-family="sans-serif" font-size="13" lengthAdjust="spacing" textLength="247.8569" x="429.1533" y="208.0278">ResolveAppResource(resource, client)</text><polygon fill="#181818" points="1158.8086,238.2266,1168.8086,242.2266,1158.8086,246.2266,1162.8086,242.2266" style="stroke:#181818;stroke-width:1;"/><line style="stroke:#181818;stroke-width:1;stroke-dasharray:2.0,2.0;" x1="412.1533" x2="1164.8086" y1="242.2266" y2="242.2266"/><text fill="#000000" font-family="sans-serif" font-size="13" lengthAdjust="spacing" textLength="98.2744" x="419.1533" y="237.1606">CertSlotHandle</text><polygon fill="#181818" points="1893.7368,267.3594,1903.7368,271.3594,1893.7368,275.3594,1897.7368,271.3594" style="stroke:#181818;stroke-width:1;"/><line style="stroke:#181818;stroke-width:1;" x1="1170.8086" x2="1899.7368" y1="271.3594" y2="271.3594"/><text fill="#000000" font-family="sans-serif" font-size="13" lengthAdjust="spacing" textLength="185.9419" x="1177.8086" y="266.2935">addNode(CertSlotDataNode)</text><polygon fill="#181818" points="1181.8086,296.4922,1171.8086,300.4922,1181.8086,304.4922,1177.8086,300.4922" style="stroke:#181818;stroke-width:1;"/><line style="stroke:#181818;stroke-width:1;stroke-dasharray:2.0,2.0;" x1="1175.8086" x2="1904.7368" y1="300.4922" y2="300.4922"/><text fill="#000000" font-family="sans-serif" font-size="13" lengthAdjust="spacing" textLength="80.7422" x="1187.8086" y="295.4263">slot_node_id</text><polygon fill="#181818" points="1378.9004,325.625,1388.9004,329.625,1378.9004,333.625,1382.9004,329.625" style="stroke:#181818;stroke-width:1;"/><line style="stroke:#181818;stroke-width:1;" x1="1170.8086" x2="1384.9004" y1="329.625" y2="329.625"/><text fill="#000000" font-family="sans-serif" font-size="13" lengthAdjust="spacing" textLength="176.4331" x="1177.8086" y="324.5591">LoadCertificate(slot config)</text><polygon fill="#181818" points="1604.1719,354.7578,1614.1719,358.7578,1604.1719,362.7578,1608.1719,358.7578" style="stroke:#181818;stroke-width:1;"/><line style="stroke:#181818;stroke-width:1;" x1="1390.9004" x2="1610.1719" y1="358.7578" y2="358.7578"/><text fill="#000000" font-family="sans-serif" font-size="13" lengthAdjust="spacing" textLength="201.2715" x="1397.9004" y="353.6919">ParseCertificate(bytes, format)</text><polygon fill="#181818" points="1401.9004,383.8906,1391.9004,387.8906,1401.9004,391.8906,1397.9004,387.8906" style="stroke:#181818;stroke-width:1;"/><line style="stroke:#181818;stroke-width:1;stroke-dasharray:2.0,2.0;" x1="1395.9004" x2="1615.1719" y1="387.8906" y2="387.8906"/><text fill="#000000" font-family="sans-serif" font-size="13" lengthAdjust="spacing" textLength="69.856" x="1407.9004" y="382.8247">CertObject</text><polygon fill="#181818" points="1181.8086,413.0234,1171.8086,417.0234,1181.8086,421.0234,1177.8086,417.0234" style="stroke:#181818;stroke-width:1;"/><line style="stroke:#181818;stroke-width:1;stroke-dasharray:2.0,2.0;" x1="1175.8086" x2="1389.9004" y1="417.0234" y2="417.0234"/><text fill="#000000" font-family="sans-serif" font-size="13" lengthAdjust="spacing" textLength="69.856" x="1187.8086" y="411.9575">CertObject</text><polygon fill="#181818" points="1893.7368,442.1563,1903.7368,446.1563,1893.7368,450.1563,1897.7368,446.1563" style="stroke:#181818;stroke-width:1;"/><line style="stroke:#181818;stroke-width:1;" x1="1170.8086" x2="1899.7368" y1="446.1563" y2="446.1563"/><text fill="#000000" font-family="sans-serif" font-size="13" lengthAdjust="spacing" textLength="193.8193" x="1177.8086" y="441.0903">addChildNode(CertDataNode)</text><polygon fill="#181818" points="875.2681,471.2891,865.2681,475.2891,875.2681,479.2891,871.2681,475.2891" style="stroke:#181818;stroke-width:1;"/><line style="stroke:#181818;stroke-width:1;" x1="869.2681" x2="1169.8086" y1="475.2891" y2="475.2891"/><text fill="#000000" font-family="sans-serif" font-size="13" lengthAdjust="spacing" textLength="282.5405" x="881.2681" y="470.2231">ResolveAppResource(trust resource, client)</text><polygon fill="#181818" points="1158.8086,500.4219,1168.8086,504.4219,1158.8086,508.4219,1162.8086,504.4219" style="stroke:#181818;stroke-width:1;"/><line style="stroke:#181818;stroke-width:1;stroke-dasharray:2.0,2.0;" x1="864.2681" x2="1164.8086" y1="504.4219" y2="504.4219"/><text fill="#000000" font-family="sans-serif" font-size="13" lengthAdjust="spacing" textLength="113.8833" x="871.2681" y="499.356">TrustStoreHandle</text><polygon fill="#181818" points="875.2681,529.5547,865.2681,533.5547,875.2681,537.5547,871.2681,533.5547" style="stroke:#181818;stroke-width:1;"/><line style="stroke:#181818;stroke-width:1;" x1="869.2681" x2="1169.8086" y1="533.5547" y2="533.5547"/><text fill="#000000" font-family="sans-serif" font-size="13" lengthAdjust="spacing" textLength="112.2646" x="881.2681" y="528.4888">GetStore(handle)</text><polygon fill="#181818" points="1158.8086,558.6875,1168.8086,562.6875,1158.8086,566.6875,1162.8086,562.6875" style="stroke:#181818;stroke-width:1;"/><line style="stroke:#181818;stroke-width:1;stroke-dasharray:2.0,2.0;" x1="864.2681" x2="1164.8086" y1="562.6875" y2="562.6875"/><text fill="#000000" font-family="sans-serif" font-size="13" lengthAdjust="spacing" textLength="119.228" x="871.2681" y="557.6216">TrustStoreHandler</text><polygon fill="#181818" points="1758.1401,587.8203,1768.1401,591.8203,1758.1401,595.8203,1762.1401,591.8203" style="stroke:#181818;stroke-width:1;"/><line style="stroke:#181818;stroke-width:1;" x1="1170.8086" x2="1764.1401" y1="591.8203" y2="591.8203"/><text fill="#000000" font-family="sans-serif" font-size="13" lengthAdjust="spacing" textLength="85.9028" x="1177.8086" y="586.7544">GetAnchors()</text><polygon fill="#181818" points="875.2681,616.9531,865.2681,620.9531,875.2681,624.9531,871.2681,620.9531" style="stroke:#181818;stroke-width:1;"/><line style="stroke:#181818;stroke-width:1;" x1="869.2681" x2="1769.1401" y1="620.9531" y2="620.9531"/><text fill="#000000" font-family="sans-serif" font-size="13" lengthAdjust="spacing" textLength="120.8022" x="881.2681" y="615.8872">lazy AnchorLoader</text><polygon fill="#181818" points="1378.9004,646.0859,1388.9004,650.0859,1378.9004,654.0859,1382.9004,650.0859" style="stroke:#181818;stroke-width:1;"/><line style="stroke:#181818;stroke-width:1;" x1="864.2681" x2="1384.9004" y1="650.0859" y2="650.0859"/><text fill="#000000" font-family="sans-serif" font-size="13" lengthAdjust="spacing" textLength="176.4331" x="871.2681" y="645.02">LoadCertificate(slot config)</text><polygon fill="#181818" points="1604.1719,675.2188,1614.1719,679.2188,1604.1719,683.2188,1608.1719,679.2188" style="stroke:#181818;stroke-width:1;"/><line style="stroke:#181818;stroke-width:1;" x1="1390.9004" x2="1610.1719" y1="679.2188" y2="679.2188"/><text fill="#000000" font-family="sans-serif" font-size="13" lengthAdjust="spacing" textLength="201.2715" x="1397.9004" y="674.1528">ParseCertificate(bytes, format)</text><polygon fill="#181818" points="1401.9004,704.3516,1391.9004,708.3516,1401.9004,712.3516,1397.9004,708.3516" style="stroke:#181818;stroke-width:1;"/><line style="stroke:#181818;stroke-width:1;stroke-dasharray:2.0,2.0;" x1="1395.9004" x2="1615.1719" y1="708.3516" y2="708.3516"/><text fill="#000000" font-family="sans-serif" font-size="13" lengthAdjust="spacing" textLength="69.856" x="1407.9004" y="703.2856">CertObject</text><polygon fill="#181818" points="875.2681,733.4844,865.2681,737.4844,875.2681,741.4844,871.2681,737.4844" style="stroke:#181818;stroke-width:1;"/><line style="stroke:#181818;stroke-width:1;stroke-dasharray:2.0,2.0;" x1="869.2681" x2="1389.9004" y1="737.4844" y2="737.4844"/><text fill="#000000" font-family="sans-serif" font-size="13" lengthAdjust="spacing" textLength="69.856" x="881.2681" y="732.4185">CertObject</text><polygon fill="#181818" points="1758.1401,762.6172,1768.1401,766.6172,1758.1401,770.6172,1762.1401,766.6172" style="stroke:#181818;stroke-width:1;"/><line style="stroke:#181818;stroke-width:1;" x1="864.2681" x2="1764.1401" y1="766.6172" y2="766.6172"/><text fill="#000000" font-family="sans-serif" font-size="13" lengthAdjust="spacing" textLength="178.0835" x="871.2681" y="761.5513">NotifySlotUpdate(slot, cert)</text><polygon fill="#181818" points="1181.8086,791.75,1171.8086,795.75,1181.8086,799.75,1177.8086,795.75" style="stroke:#181818;stroke-width:1;"/><line style="stroke:#181818;stroke-width:1;stroke-dasharray:2.0,2.0;" x1="1175.8086" x2="1769.1401" y1="795.75" y2="795.75"/><text fill="#000000" font-family="sans-serif" font-size="13" lengthAdjust="spacing" textLength="51.6636" x="1187.8086" y="790.6841">anchors</text><polygon fill="#181818" points="1378.9004,820.8828,1388.9004,824.8828,1378.9004,828.8828,1382.9004,824.8828" style="stroke:#181818;stroke-width:1;"/><line style="stroke:#181818;stroke-width:1;" x1="1170.8086" x2="1384.9004" y1="824.8828" y2="824.8828"/><text fill="#000000" font-family="sans-serif" font-size="13" lengthAdjust="spacing" textLength="196.0918" x="1177.8086" y="819.8169">StoreCertificate(updated cert)</text><polygon fill="#181818" points="2064.5864,850.0156,2074.5864,854.0156,2064.5864,858.0156,2068.5864,854.0156" style="stroke:#181818;stroke-width:1;"/><line style="stroke:#181818;stroke-width:1;" x1="1390.9004" x2="2070.5864" y1="854.0156" y2="854.0156"/><text fill="#000000" font-family="sans-serif" font-size="13" lengthAdjust="spacing" textLength="193.1401" x="1397.9004" y="848.9497">atomic cert + metadata write</text><polygon fill="#181818" points="875.2681,879.1484,865.2681,883.1484,875.2681,887.1484,871.2681,883.1484" style="stroke:#181818;stroke-width:1;"/><line style="stroke:#181818;stroke-width:1;" x1="869.2681" x2="1169.8086" y1="883.1484" y2="883.1484"/><text fill="#000000" font-family="sans-serif" font-size="13" lengthAdjust="spacing" textLength="196.606" x="881.2681" y="878.0825">NotifySlotChanged(store, slot)</text><polygon fill="#181818" points="1758.1401,908.2813,1768.1401,912.2813,1758.1401,916.2813,1762.1401,912.2813" style="stroke:#181818;stroke-width:1;"/><line style="stroke:#181818;stroke-width:1;" x1="864.2681" x2="1764.1401" y1="912.2813" y2="912.2813"/><text fill="#000000" font-family="sans-serif" font-size="13" lengthAdjust="spacing" textLength="122.7637" x="871.2681" y="907.2153">InvalidateSlot(slot)</text><polygon fill="#181818" points="1758.1401,937.4141,1768.1401,941.4141,1758.1401,945.4141,1762.1401,941.4141" style="stroke:#181818;stroke-width:1;"/><line style="stroke:#181818;stroke-width:1;" x1="1170.8086" x2="1764.1401" y1="941.4141" y2="941.4141"/><text fill="#000000" font-family="sans-serif" font-size="13" lengthAdjust="spacing" textLength="85.9028" x="1177.8086" y="936.3481">GetAnchors()</text><polygon fill="#181818" points="875.2681,966.5469,865.2681,970.5469,875.2681,974.5469,871.2681,970.5469" style="stroke:#181818;stroke-width:1;"/><line style="stroke:#181818;stroke-width:1;" x1="869.2681" x2="1769.1401" y1="970.5469" y2="970.5469"/><text fill="#000000" font-family="sans-serif" font-size="13" lengthAdjust="spacing" textLength="128.9209" x="881.2681" y="965.481">reload changed slot</text><polygon fill="#181818" points="1378.9004,995.6797,1388.9004,999.6797,1378.9004,1003.6797,1382.9004,999.6797" style="stroke:#181818;stroke-width:1;"/><line style="stroke:#181818;stroke-width:1;" x1="864.2681" x2="1384.9004" y1="999.6797" y2="999.6797"/><text fill="#000000" font-family="sans-serif" font-size="13" lengthAdjust="spacing" textLength="109.0845" x="871.2681" y="994.6138">LoadCertificate()</text><polygon fill="#181818" points="1604.1719,1024.8125,1614.1719,1028.8125,1604.1719,1032.8125,1608.1719,1028.8125" style="stroke:#181818;stroke-width:1;"/><line style="stroke:#181818;stroke-width:1;" x1="1390.9004" x2="1610.1719" y1="1028.8125" y2="1028.8125"/><text fill="#000000" font-family="sans-serif" font-size="13" lengthAdjust="spacing" textLength="113.5913" x="1397.9004" y="1023.7466">ParseCertificate()</text><polygon fill="#181818" points="1401.9004,1053.9453,1391.9004,1057.9453,1401.9004,1061.9453,1397.9004,1057.9453" style="stroke:#181818;stroke-width:1;"/><line style="stroke:#181818;stroke-width:1;stroke-dasharray:2.0,2.0;" x1="1395.9004" x2="1615.1719" y1="1057.9453" y2="1057.9453"/><text fill="#000000" font-family="sans-serif" font-size="13" lengthAdjust="spacing" textLength="128.0449" x="1407.9004" y="1052.8794">updated CertObject</text><polygon fill="#181818" points="875.2681,1083.0781,865.2681,1087.0781,875.2681,1091.0781,871.2681,1087.0781" style="stroke:#181818;stroke-width:1;"/><line style="stroke:#181818;stroke-width:1;stroke-dasharray:2.0,2.0;" x1="869.2681" x2="1389.9004" y1="1087.0781" y2="1087.0781"/><text fill="#000000" font-family="sans-serif" font-size="13" lengthAdjust="spacing" textLength="128.0449" x="881.2681" y="1082.0122">updated CertObject</text><polygon fill="#181818" points="1758.1401,1112.2109,1768.1401,1116.2109,1758.1401,1120.2109,1762.1401,1116.2109" style="stroke:#181818;stroke-width:1;"/><line style="stroke:#181818;stroke-width:1;" x1="864.2681" x2="1764.1401" y1="1116.2109" y2="1116.2109"/><text fill="#000000" font-family="sans-serif" font-size="13" lengthAdjust="spacing" textLength="120.7959" x="871.2681" y="1111.145">NotifySlotUpdate()</text><polygon fill="#181818" points="1181.8086,1141.3438,1171.8086,1145.3438,1181.8086,1149.3438,1177.8086,1145.3438" style="stroke:#181818;stroke-width:1;"/><line style="stroke:#181818;stroke-width:1;stroke-dasharray:2.0,2.0;" x1="1175.8086" x2="1769.1401" y1="1145.3438" y2="1145.3438"/><text fill="#000000" font-family="sans-serif" font-size="13" lengthAdjust="spacing" textLength="109.8525" x="1187.8086" y="1140.2778">updated anchors</text><!--SRC=[pLJ1ZjCm4BtdAwoU4j7-00UafTKkIB2Bjd1UpJhJrE36aUqMXQ_7OpkDtIPGYGitP_pcpSoR5tUWhU2YWzQonRq4k-AgtOc6TQ0DwWK3mzO-KdGfDCGsMfomtKfbrs11giRZa- -B9DIMBf-n4SRg_emsy-HVzT7OhLKQqn8-EbbZn7-65feuWW-Owsu2ve2jtQ8-2Ou17Suv_5v8V0_y1zRKyGTeQnd9upc7FtLE62Efo9THod2SwpWbJGCvVkF6JcUZxw88ch7LkrH-zfPH0s8dE5YCUqpl8zmuO5WAQlekWmcgX3LLV98s0n2lbzn1FoceIqDVBD2Q9TFH0Kks0-wk-ce-VsZihkkUqQYZvbXMHH6Nb8zWb3nX2jJni6HS2hVcgWZW5QL5XZ3DkDMKciHr0AZhHrLZEG0fJ86gy82SpJZ0I-jkNqITzHdN6JL992mfXGsY3p2N4VpY4lmXpNZjBJeXTqeVm4qLWQki2k6VNhyZjoFdrTmHC3dpUY_aEFWuT2R-kAShzItjb4ti8EJapLp-1vD57Z10oht7t4YbhxX6aHpZNSltIfioiYNwd-jA-DMpWAFT4MCi_F-iTUWrtUgvoOkf7vKhsPELltNrqAfRa4kzL25J5e9KCxOExtGopj6Jrv4tKM2ntODs5nlifEhf0VR9xb5RK1Mh3eBxBFQ67T12JPxygOMTjiKupjePey7uu2pzlrZDo_2nFO4KrAD_zYBw7xsYKJeVC1uwyItSv9ORBJBZYa7glxbZ0dUxI_xeZO4vUkGt]--></g></svg>